<svg width="101" height="72" viewBox="0 0 101 72" fill="none" xmlns="http://www.w3.org/2000/svg">
<path d="M43.3001 20.8146L20.9553 72H2.99003L25.4242 20.8146H0.100098L6.80353 5.76001H34.0594L43.3001 20.8146Z" fill="url(#paint0_linear_890_7719)"/>
<path d="M34.6602 0L44.5162 15.84L51.9402 0H47.9722H34.6602Z" fill="#06B6D4"/>
<path fill-rule="evenodd" clip-rule="evenodd" d="M33.9682 59.4058C33.1302 58.0614 31.1329 58.1794 30.4597 59.6133L26.2114 69.1567C25.5899 70.4804 26.5577 72.0001 28.0221 72.0001H38.4172C39.986 72.0001 40.9438 70.279 40.115 68.9493L33.9682 59.4058ZM35.3319 68.578C35.556 68.578 35.6929 68.3321 35.5745 68.1422L32.7253 63.8893C32.6056 63.6972 32.3202 63.7141 32.2241 63.9189L30.4597 68.1718C30.3709 68.3609 30.5092 68.578 30.7184 68.578H35.3319Z" fill="#06B6D4"/>
<path fill-rule="evenodd" clip-rule="evenodd" d="M59.4885 3.33414e-09C58.686 -4.57056e-05 57.9591 0.469887 57.6352 1.1982L35.4944 50.9789L34.8193 52.5668C34.5593 53.1785 34.6206 53.8781 34.9832 54.4361L42.991 66.7592C43.8598 68.0962 45.876 67.9491 46.5382 66.5004L53.6334 50.9789L56.7516 43.9959C56.8907 43.6844 57.2019 43.4836 57.5453 43.4836H71.2195C72.0165 43.4836 72.7395 43.0199 73.0666 42.2989L78.0457 31.3235C78.6489 29.9939 77.6684 28.4898 76.1986 28.4898H64.1205C63.9112 28.4898 63.7712 28.2763 63.8559 28.0865L69.4732 15.5072C69.6123 15.1957 69.9234 14.9948 70.2669 14.9948H93.8932C94.6902 14.9948 95.4132 14.5311 95.7403 13.8101L100.719 2.83466C101.323 1.50509 100.342 0.000963102 98.8723 0.000963102L59.4885 3.33414e-09ZM60.9016 3.29856C60.5577 3.29856 60.2462 3.49996 60.1074 3.81208L38.7118 51.9173C38.5989 52.171 38.6162 52.4631 38.7581 52.702L44.3973 62.1963C44.5165 62.3969 44.8142 62.3807 44.9105 62.1684L50.5929 49.643L54.2825 41.3804C54.607 40.6536 55.3331 40.1849 56.1344 40.1849H69.8176C70.1593 40.1849 70.4691 39.9862 70.6093 39.6772L74.0045 32.1932C74.0907 32.0033 73.9506 31.7884 73.7406 31.7884H61.6783C60.2136 31.7884 59.2331 30.2939 59.8263 28.9655L67.004 12.8916C67.3286 12.1648 68.0546 11.6962 68.856 11.6962H92.4913C92.8329 11.6962 93.1428 11.4974 93.283 11.1884L96.6782 3.7044C96.7644 3.51447 96.6243 3.29959 96.4143 3.29958L60.9016 3.29856Z" fill="url(#paint1_linear_890_7719)"/>
<defs>
<linearGradient id="paint0_linear_890_7719" x1="6.65891" y1="5.74594" x2="19.6821" y2="71.9783" gradientUnits="userSpaceOnUse">
<stop stop-color="#06B6D4"/>
<stop offset="0.489826" stop-color="#14B8A6"/>
<stop offset="1" stop-color="#FBBF24"/>
</linearGradient>
<linearGradient id="paint1_linear_890_7719" x1="44.8557" y1="67.1504" x2="109.942" y2="8.84584" gradientUnits="userSpaceOnUse">
<stop stop-color="#06B6D4"/>
<stop offset="0.489826" stop-color="#14B8A6"/>
<stop offset="1" stop-color="#FBBF24"/>
</linearGradient>
</defs>
</svg>
